<mxfile host="Electron" modified="2023-10-04T09:22:22.396Z" agent="Mozilla/5.0 (Windows NT 10.0; Win64; x64) AppleWebKit/537.36 (KHTML, like Gecko) draw.io/21.6.1 Chrome/112.0.5615.204 Electron/24.6.1 Safari/537.36" etag="YsPKjoDWLOlOtr5OdP3G" version="21.6.1" type="device">
  <diagram name="Page-1" id="4PSTWCO-GAQhO6vcPNk5">
    <mxGraphModel dx="2330" dy="877" grid="1" gridSize="10" guides="1" tooltips="1" connect="1" arrows="1" fold="1" page="1" pageScale="1" pageWidth="850" pageHeight="1100" math="0" shadow="0">
      <root>
        <mxCell id="0" />
        <mxCell id="1" parent="0" />
        <mxCell id="bHTzlV4ufYEfvP99l_Os-1" value="Popcorn logo" style="rounded=1;whiteSpace=wrap;html=1;" parent="1" vertex="1">
          <mxGeometry x="20" y="30" width="120" height="60" as="geometry" />
        </mxCell>
        <mxCell id="bHTzlV4ufYEfvP99l_Os-2" value="About" style="rounded=1;whiteSpace=wrap;html=1;" parent="1" vertex="1">
          <mxGeometry x="400" y="50" width="70" height="40" as="geometry" />
        </mxCell>
        <mxCell id="bHTzlV4ufYEfvP99l_Os-4" value="City&amp;nbsp; &amp;nbsp; &amp;nbsp; V" style="rounded=1;whiteSpace=wrap;html=1;" parent="1" vertex="1">
          <mxGeometry x="490" y="50" width="90" height="40" as="geometry" />
        </mxCell>
        <mxCell id="bHTzlV4ufYEfvP99l_Os-5" value="Login" style="rounded=1;whiteSpace=wrap;html=1;" parent="1" vertex="1">
          <mxGeometry x="610" y="50" width="90" height="40" as="geometry" />
        </mxCell>
        <mxCell id="bHTzlV4ufYEfvP99l_Os-6" value="Signup" style="rounded=1;whiteSpace=wrap;html=1;" parent="1" vertex="1">
          <mxGeometry x="740" y="50" width="80" height="40" as="geometry" />
        </mxCell>
        <mxCell id="bHTzlV4ufYEfvP99l_Os-7" value="&lt;font style=&quot;font-size: 24px;&quot;&gt;carousel&lt;/font&gt;" style="rounded=0;whiteSpace=wrap;html=1;" parent="1" vertex="1">
          <mxGeometry y="140" width="800" height="320" as="geometry" />
        </mxCell>
        <mxCell id="bHTzlV4ufYEfvP99l_Os-9" value="&lt;u&gt;Up&lt;/u&gt;coming movies" style="rounded=1;whiteSpace=wrap;html=1;" parent="1" vertex="1">
          <mxGeometry x="80" y="830" width="120" height="140" as="geometry" />
        </mxCell>
        <mxCell id="bHTzlV4ufYEfvP99l_Os-10" value="&lt;u style=&quot;border-color: var(--border-color);&quot;&gt;Up&lt;/u&gt;coming movies" style="rounded=1;whiteSpace=wrap;html=1;" parent="1" vertex="1">
          <mxGeometry x="260" y="830" width="120" height="140" as="geometry" />
        </mxCell>
        <mxCell id="bHTzlV4ufYEfvP99l_Os-11" value="&lt;u style=&quot;border-color: var(--border-color);&quot;&gt;Up&lt;/u&gt;coming movies" style="rounded=1;whiteSpace=wrap;html=1;" parent="1" vertex="1">
          <mxGeometry x="640" y="830" width="120" height="140" as="geometry" />
        </mxCell>
        <mxCell id="bHTzlV4ufYEfvP99l_Os-12" value="&lt;u style=&quot;border-color: var(--border-color);&quot;&gt;Up&lt;/u&gt;coming movies" style="rounded=1;whiteSpace=wrap;html=1;" parent="1" vertex="1">
          <mxGeometry x="450" y="830" width="120" height="140" as="geometry" />
        </mxCell>
        <mxCell id="bHTzlV4ufYEfvP99l_Os-14" value="Movie-Name" style="rounded=1;whiteSpace=wrap;html=1;" parent="1" vertex="1">
          <mxGeometry x="80" y="550" width="120" height="130" as="geometry" />
        </mxCell>
        <mxCell id="bHTzlV4ufYEfvP99l_Os-15" value="Movie-Name" style="rounded=1;whiteSpace=wrap;html=1;" parent="1" vertex="1">
          <mxGeometry x="280" y="550" width="120" height="130" as="geometry" />
        </mxCell>
        <mxCell id="bHTzlV4ufYEfvP99l_Os-16" value="Movie-Name" style="rounded=1;whiteSpace=wrap;html=1;" parent="1" vertex="1">
          <mxGeometry x="475" y="550" width="125" height="130" as="geometry" />
        </mxCell>
        <mxCell id="bHTzlV4ufYEfvP99l_Os-17" value="Movie-Name" style="rounded=1;whiteSpace=wrap;html=1;" parent="1" vertex="1">
          <mxGeometry x="680" y="550" width="120" height="130" as="geometry" />
        </mxCell>
        <mxCell id="bHTzlV4ufYEfvP99l_Os-18" value="Movie List" style="rounded=0;whiteSpace=wrap;html=1;" parent="1" vertex="1">
          <mxGeometry x="210" y="480" width="400" height="40" as="geometry" />
        </mxCell>
        <mxCell id="bHTzlV4ufYEfvP99l_Os-19" value="Upcoming Movies" style="rounded=0;whiteSpace=wrap;html=1;" parent="1" vertex="1">
          <mxGeometry x="130" y="760" width="580" height="40" as="geometry" />
        </mxCell>
        <mxCell id="bHTzlV4ufYEfvP99l_Os-20" value="&lt;font style=&quot;font-size: 18px;&quot;&gt;Signup for User&lt;br&gt;&lt;/font&gt;" style="text;html=1;align=center;verticalAlign=middle;resizable=0;points=[];autosize=1;strokeColor=none;fillColor=none;" parent="1" vertex="1">
          <mxGeometry x="165" y="1073" width="150" height="40" as="geometry" />
        </mxCell>
        <mxCell id="bHTzlV4ufYEfvP99l_Os-23" value="Name:" style="rounded=0;whiteSpace=wrap;html=1;align=left;" parent="1" vertex="1">
          <mxGeometry x="-5" y="1160" width="430" height="60" as="geometry" />
        </mxCell>
        <mxCell id="bHTzlV4ufYEfvP99l_Os-24" value="&amp;nbsp;Email" style="rounded=0;whiteSpace=wrap;html=1;align=left;" parent="1" vertex="1">
          <mxGeometry x="-5" y="1240" width="430" height="60" as="geometry" />
        </mxCell>
        <mxCell id="bHTzlV4ufYEfvP99l_Os-25" value="Phone Nmber" style="rounded=0;whiteSpace=wrap;html=1;align=left;" parent="1" vertex="1">
          <mxGeometry x="-5" y="1340" width="430" height="60" as="geometry" />
        </mxCell>
        <mxCell id="bHTzlV4ufYEfvP99l_Os-26" value="Password" style="rounded=0;whiteSpace=wrap;html=1;align=left;" parent="1" vertex="1">
          <mxGeometry x="-5" y="1420" width="430" height="60" as="geometry" />
        </mxCell>
        <mxCell id="bHTzlV4ufYEfvP99l_Os-27" value="Confirm password:" style="rounded=0;whiteSpace=wrap;html=1;align=left;" parent="1" vertex="1">
          <mxGeometry x="-5" y="1500" width="430" height="60" as="geometry" />
        </mxCell>
        <mxCell id="bHTzlV4ufYEfvP99l_Os-29" value="Create A New Account" style="rounded=1;whiteSpace=wrap;html=1;" parent="1" vertex="1">
          <mxGeometry y="1590" width="430" height="60" as="geometry" />
        </mxCell>
        <mxCell id="bHTzlV4ufYEfvP99l_Os-30" value="&lt;font style=&quot;font-size: 18px;&quot;&gt;Login&lt;/font&gt;" style="text;html=1;align=center;verticalAlign=middle;resizable=0;points=[];autosize=1;strokeColor=none;fillColor=none;" parent="1" vertex="1">
          <mxGeometry x="165" y="1760" width="70" height="40" as="geometry" />
        </mxCell>
        <mxCell id="bHTzlV4ufYEfvP99l_Os-31" value="Email" style="rounded=0;whiteSpace=wrap;html=1;align=left;" parent="1" vertex="1">
          <mxGeometry x="20" y="1840" width="430" height="60" as="geometry" />
        </mxCell>
        <mxCell id="bHTzlV4ufYEfvP99l_Os-32" value="Password" style="rounded=0;whiteSpace=wrap;html=1;align=left;" parent="1" vertex="1">
          <mxGeometry x="20" y="1910" width="430" height="60" as="geometry" />
        </mxCell>
        <mxCell id="bHTzlV4ufYEfvP99l_Os-33" value="Login" style="rounded=1;whiteSpace=wrap;html=1;" parent="1" vertex="1">
          <mxGeometry x="20" y="1980" width="420" height="60" as="geometry" />
        </mxCell>
        <mxCell id="bHTzlV4ufYEfvP99l_Os-34" value="Admin/Hall manager can see the list f user&lt;br&gt;" style="text;html=1;align=center;verticalAlign=middle;resizable=0;points=[];autosize=1;strokeColor=none;fillColor=none;" parent="1" vertex="1">
          <mxGeometry x="25" y="2118" width="250" height="30" as="geometry" />
        </mxCell>
        <mxCell id="bHTzlV4ufYEfvP99l_Os-35" value="Name" style="rounded=0;whiteSpace=wrap;html=1;" parent="1" vertex="1">
          <mxGeometry y="2180" width="120" height="30" as="geometry" />
        </mxCell>
        <mxCell id="bHTzlV4ufYEfvP99l_Os-36" value="Email" style="rounded=0;whiteSpace=wrap;html=1;" parent="1" vertex="1">
          <mxGeometry x="115" y="2180" width="120" height="30" as="geometry" />
        </mxCell>
        <mxCell id="bHTzlV4ufYEfvP99l_Os-37" value="Phone Number" style="rounded=0;whiteSpace=wrap;html=1;" parent="1" vertex="1">
          <mxGeometry x="235" y="2180" width="120" height="30" as="geometry" />
        </mxCell>
        <mxCell id="bHTzlV4ufYEfvP99l_Os-38" value="Approve/cancel" style="rounded=0;whiteSpace=wrap;html=1;" parent="1" vertex="1">
          <mxGeometry x="355" y="2180" width="120" height="30" as="geometry" />
        </mxCell>
        <mxCell id="bHTzlV4ufYEfvP99l_Os-39" value="&lt;font style=&quot;font-size: 18px;&quot;&gt;Movie Add By Hall Manager&lt;/font&gt;" style="text;html=1;align=center;verticalAlign=middle;resizable=0;points=[];autosize=1;strokeColor=none;fillColor=none;" parent="1" vertex="1">
          <mxGeometry x="-5" y="2243" width="250" height="40" as="geometry" />
        </mxCell>
        <mxCell id="bHTzlV4ufYEfvP99l_Os-40" value="Name" style="rounded=0;whiteSpace=wrap;html=1;align=left;" parent="1" vertex="1">
          <mxGeometry x="20" y="2300" width="370" height="40" as="geometry" />
        </mxCell>
        <mxCell id="bHTzlV4ufYEfvP99l_Os-41" value="cast" style="rounded=0;whiteSpace=wrap;html=1;align=left;" parent="1" vertex="1">
          <mxGeometry x="20" y="2340" width="370" height="40" as="geometry" />
        </mxCell>
        <mxCell id="bHTzlV4ufYEfvP99l_Os-42" value="Singer" style="rounded=0;whiteSpace=wrap;html=1;align=left;" parent="1" vertex="1">
          <mxGeometry x="20" y="2380" width="370" height="40" as="geometry" />
        </mxCell>
        <mxCell id="bHTzlV4ufYEfvP99l_Os-43" value="Direction" style="rounded=0;whiteSpace=wrap;html=1;align=left;" parent="1" vertex="1">
          <mxGeometry x="20" y="2420" width="370" height="40" as="geometry" />
        </mxCell>
        <mxCell id="bHTzlV4ufYEfvP99l_Os-44" value="Description" style="rounded=0;whiteSpace=wrap;html=1;align=left;" parent="1" vertex="1">
          <mxGeometry x="20" y="2460" width="370" height="40" as="geometry" />
        </mxCell>
        <mxCell id="bHTzlV4ufYEfvP99l_Os-45" value="Show Time" style="rounded=0;whiteSpace=wrap;html=1;align=left;" parent="1" vertex="1">
          <mxGeometry x="20" y="2500" width="370" height="40" as="geometry" />
        </mxCell>
        <mxCell id="bHTzlV4ufYEfvP99l_Os-46" value="Add Movie" style="rounded=1;whiteSpace=wrap;html=1;" parent="1" vertex="1">
          <mxGeometry x="20" y="2560" width="370" height="60" as="geometry" />
        </mxCell>
        <mxCell id="bHTzlV4ufYEfvP99l_Os-47" value="&lt;font style=&quot;font-size: 18px;&quot;&gt;&amp;nbsp; &amp;nbsp; &amp;nbsp; &amp;nbsp; &amp;nbsp; &amp;nbsp; &amp;nbsp; &amp;nbsp; &amp;nbsp; &amp;nbsp; &amp;nbsp; &amp;nbsp; &amp;nbsp; &amp;nbsp;Header of Home After luser login&amp;nbsp;&lt;/font&gt;" style="text;html=1;align=center;verticalAlign=middle;resizable=0;points=[];autosize=1;strokeColor=none;fillColor=none;" parent="1" vertex="1">
          <mxGeometry x="-135" y="2693" width="420" height="40" as="geometry" />
        </mxCell>
        <mxCell id="bHTzlV4ufYEfvP99l_Os-48" value="Popcorn Logo" style="rounded=1;whiteSpace=wrap;html=1;" parent="1" vertex="1">
          <mxGeometry x="10" y="2750" width="120" height="40" as="geometry" />
        </mxCell>
        <mxCell id="bHTzlV4ufYEfvP99l_Os-49" value="Buy Ticket" style="rounded=1;whiteSpace=wrap;html=1;" parent="1" vertex="1">
          <mxGeometry x="280" y="2740" width="120" height="40" as="geometry" />
        </mxCell>
        <mxCell id="bHTzlV4ufYEfvP99l_Os-50" value="About Hall" style="rounded=1;whiteSpace=wrap;html=1;" parent="1" vertex="1">
          <mxGeometry x="410" y="2740" width="120" height="40" as="geometry" />
        </mxCell>
        <mxCell id="bHTzlV4ufYEfvP99l_Os-51" value="City&amp;nbsp; &amp;nbsp; V&amp;nbsp; &amp;nbsp;" style="rounded=1;whiteSpace=wrap;html=1;" parent="1" vertex="1">
          <mxGeometry x="540" y="2740" width="120" height="40" as="geometry" />
        </mxCell>
        <mxCell id="bHTzlV4ufYEfvP99l_Os-55" value="User" style="rounded=1;whiteSpace=wrap;html=1;" parent="1" vertex="1">
          <mxGeometry x="670" y="2741.5" width="120" height="37" as="geometry" />
        </mxCell>
        <mxCell id="bHTzlV4ufYEfvP99l_Os-56" value="Profile" style="rounded=0;whiteSpace=wrap;html=1;" parent="1" vertex="1">
          <mxGeometry x="670" y="2780" width="120" height="40" as="geometry" />
        </mxCell>
        <mxCell id="bHTzlV4ufYEfvP99l_Os-57" value="Logout" style="rounded=0;whiteSpace=wrap;html=1;" parent="1" vertex="1">
          <mxGeometry x="670" y="2820" width="120" height="40" as="geometry" />
        </mxCell>
        <mxCell id="bHTzlV4ufYEfvP99l_Os-58" value="&lt;font style=&quot;font-size: 18px;&quot;&gt;User profile&lt;br&gt;&lt;br&gt;&lt;br&gt;Edit Profile&lt;br&gt;Give Review Movie&lt;br&gt;Give Review ebsite&lt;br&gt;&lt;/font&gt;" style="text;html=1;align=left;verticalAlign=middle;resizable=0;points=[];autosize=1;strokeColor=none;fillColor=none;" parent="1" vertex="1">
          <mxGeometry x="10" y="2860" width="180" height="140" as="geometry" />
        </mxCell>
      </root>
    </mxGraphModel>
  </diagram>
</mxfile>
